<?xml version="1.0" standalone="no"?><!DOCTYPE svg PUBLIC "-//W3C//DTD SVG 1.1//EN" "http://www.w3.org/Graphics/SVG/1.1/DTD/svg11.dtd"><svg t="1603852016342" class="icon" viewBox="0 0 1109 1024" version="1.1" xmlns="http://www.w3.org/2000/svg" p-id="3075" xmlns:xlink="http://www.w3.org/1999/xlink" width="140.791015625" height="130"><defs><style type="text/css"></style></defs><path d="M773.973333 576c-43.818667 57.472-110.762667 52.608-155.306666 12.8-44.629333-39.893333-172.373333-159.104-172.373334-159.104s-31.829333-37.546667-73.130666 10.496c-41.258667 48.042667-167.338667 216.96-167.338667 216.96s-60.586667 48.384-107.178667 0C40.917333 597.248 10.794667 647.765333 0 656.554667v280.448C0 985.045333 35.456 1024 79.232 1024h950.826667C1073.834667 1024 1109.333333 985.045333 1109.333333 937.002667V170.666667a32.768 32.768 0 0 0-9.344 3.754666L773.973333 576z m-635.861333 33.834667c51.072 0 92.458667-39.850667 92.458667-89.045334a85.76 85.76 0 0 0-7.722667-35.456l162.048-192.853333c9.130667 2.986667 18.773333 4.906667 28.885333 4.906667 13.866667 0 26.922667-3.157333 38.698667-8.405334l141.781333 136.533334c-3.029333 8.789333-5.034667 18.005333-5.034666 27.733333 0 49.194667 41.386667 89.045333 92.458666 89.045333 51.029333 0 92.416-39.850667 92.416-89.045333 0-10.965333-2.346667-21.333333-6.101333-31.061333l220.885333-248.661334c8.874667 2.688 18.133333 4.608 27.989334 4.608C1067.946667 178.133333 1109.333333 138.24 1109.333333 89.045333 1109.333333 39.893333 1067.946667 0 1016.874667 0c-51.072 0-92.416 39.893333-92.416 89.045333 0 11.434667 2.432 22.229333 6.485333 32.256L710.826667 369.152a94.421333 94.421333 0 0 0-29.141334-4.949333c-11.605333 0-22.570667 2.261333-32.768 6.016l-145.706666-140.373334a85.333333 85.333333 0 0 0 3.072-21.504c0-49.194667-41.386667-89.045333-92.458667-89.045333-51.072 0-92.458667 39.850667-92.458667 89.045333 0 11.008 2.346667 21.418667 6.144 31.146667l-164.608 195.84a94.464 94.464 0 0 0-24.789333-3.626667c-51.072 0-92.458667 39.893333-92.458667 89.088s41.386667 89.045333 92.458667 89.045334z" p-id="3076"></path></svg>