<?xml version="1.0" standalone="no"?><!DOCTYPE svg PUBLIC "-//W3C//DTD SVG 1.1//EN" "http://www.w3.org/Graphics/SVG/1.1/DTD/svg11.dtd"><svg t="1603431981772" class="icon" viewBox="0 0 1024 1024" version="1.1" xmlns="http://www.w3.org/2000/svg" p-id="3718" xmlns:xlink="http://www.w3.org/1999/xlink" width="130" height="130"><defs><style type="text/css"></style></defs><path d="M929.441948 806.687746c5.882111 39.960371 39.960371 34.07826 45.842482 51.789561 0 10.996598-5.882111 51.596655-22.888757 56.903048-17.071614 0-39.832434-5.882111-56.904048 0-11.252473 5.882111-22.952725 11.188504-28.835836 22.888757-11.188504 28.64393 11.189504 51.661623 0 62.786159-17.070615 11.189504-51.596655 28.771867-62.72119 17.071614-17.134583-17.071614-17.134583-40.02434-51.788561-40.02434-45.714545 0-45.714545 45.90645-68.732238 45.906451-22.888757 0-62.721191-17.071614-62.721191-34.078261 5.882111-22.953725 17.071614-40.02434-5.947079-62.786159-28.770867-22.888757-62.785159 0-74.54938-11.188504-17.007646-11.189504-22.888757-39.960371-17.007646-56.904048 5.882111-17.071614 45.779513-17.071614 45.779513-62.913096 0-33.950323-39.960371-39.832434-45.779513-62.72219-5.882111-17.134583 5.882111-45.778513 22.889756-51.660624 28.771867-11.188504 45.714545 11.060567 74.613349-11.188504 17.071614-17.071614 11.189504-57.031985 11.189504-68.66827 5.882111-17.071614 28.64393-22.888757 45.714545-22.888756 34.143228 0 22.953725 39.895403 68.732238 45.713545 45.842482 0 39.960371-16.942678 62.913096-45.714545 28.64393 0 51.596655 11.189504 56.904048 22.888757 11.188504 22.762819-11.189504 56.968017 22.888757 79.857773 28.64393 16.942678 56.968017-5.882111 74.55038 0 11.188504 5.882111 17.071614 22.761819 22.888757 45.714544-11.188504 33.566512-62.913096 27.620433-57.030986 79.217088z m-205.938841-114.509751C585.973663 726.256255 637.698256 926.504891 769.215653 904.127882c132.157083-28.771867 114.446782-240.593818-45.714545-211.949887z m-234.392863-200.121698c-137.399508 0-246.027149-108.62864-246.027149-246.029148S351.710736 0 489.110244 0s246.092117 108.62864 246.092117 246.028148c0 131.453429-108.691609 246.028148-246.092117 246.028149z m200.121698 56.903048s-91.620995 0-85.737885 62.786159c5.881111 68.668269-85.675915 17.134583-102.682561 74.613349-22.825788 68.732238 11.188504 56.968017 28.835835 102.74653 11.124536 28.771867-45.779513 45.842482-39.960371 97.440136 11.188504 68.603301 68.66627 34.077261 85.737885 74.485412 11.061566 34.143228-28.770867 57.095954-120.392862 57.095954-74.549381 0-217.192313 0-268.916905-5.882111 0 0-148.525043-5.882111-148.525043-102.746529 0 0-5.882111-143.345587 85.738884-245.96418 0 0 97.440136-125.763224 263.035794-125.763224l302.867229 11.188504z" p-id="3719" fill="#2c2c2c"></path></svg>