<?xml version="1.0" standalone="no"?><!DOCTYPE svg PUBLIC "-//W3C//DTD SVG 1.1//EN" "http://www.w3.org/Graphics/SVG/1.1/DTD/svg11.dtd"><svg t="1603431902988" class="icon" viewBox="0 0 1027 1024" version="1.1" xmlns="http://www.w3.org/2000/svg" p-id="9367" xmlns:xlink="http://www.w3.org/1999/xlink" width="130.380859375" height="130"><defs><style type="text/css"></style></defs><path d="M915.799386 3.617575H104.59773c-58.671672 0-104.590384 45.918713-104.590385 104.590384v811.201657c0 58.668572 45.918713 104.590384 104.590385 104.590384h811.201656c58.668572 0 104.590384-45.921812 104.590385-104.590384V108.207959c0-58.674772-48.466824-104.590384-104.590385-104.590384z m-73.978942 826.508927a22.86481 22.86481 0 0 1-22.957807 22.954707H214.287438a22.86481 22.86481 0 0 1-22.960907-22.954707 22.85861 22.85861 0 0 1 22.960907-22.954706h607.126411c10.201747 0 20.406595 10.195548 20.406595 22.954706z m-17.855383-535.70178c-25.509018 155.608421-158.159632 272.951764-313.768053 272.951764S221.937973 452.584354 198.980167 296.975933v-2.551211h-2.554312c-15.304171-10.204847-25.509018-25.509018-25.509018-40.813189 0-28.06333 22.957806-48.469924 48.469924-48.469925 28.05713 0 48.466824 22.960906 48.466825 48.469925 0 15.304171-7.650536 28.06023-17.855383 38.261977l-2.554312 2.551212v2.551211c20.406595 127.548191 130.099402 221.933728 260.195705 221.933728 130.102502 0 239.78911-94.385537 260.195705-221.933728v-2.551211l-2.548112-2.551212c-12.749859-10.201747-17.858483-22.960906-17.858482-38.261977 0-28.06333 22.957806-48.469924 48.473024-48.469925 28.06023 0 48.469924 22.960906 48.469925 48.469925 2.548112 15.304171-5.105524 30.611442-20.406595 40.813189z" fill="" p-id="9368"></path></svg>