<?xml version="1.0" standalone="no"?><!DOCTYPE svg PUBLIC "-//W3C//DTD SVG 1.1//EN" "http://www.w3.org/Graphics/SVG/1.1/DTD/svg11.dtd"><svg t="1603431837529" class="icon" viewBox="0 0 1170 1024" version="1.1" xmlns="http://www.w3.org/2000/svg" p-id="6010" xmlns:xlink="http://www.w3.org/1999/xlink" width="148.53515625" height="130"><defs><style type="text/css"></style></defs><path d="M1065.10335 987.211771H105.171916a68.6031 68.6031 0 0 1-68.529962-71.528606V107.366045a68.383687 68.383687 0 0 1 68.6031-71.089779h338.407828a60.996786 60.996786 0 0 1 47.685737 21.136776l73.137633 76.209414a64.799943 64.799943 0 0 0 48.124562 21.502464h452.429398a68.383687 68.383687 0 0 1 68.6031 71.089779v689.468466a68.6031 68.6031 0 0 1-68.529962 71.528606z m-606.676666-238.501822a251.739733 251.739733 0 0 0 52.878508 31.010357l11.702022 80.890222a14.627527 14.627527 0 0 0 16.017141 11.702021h125.138491a14.627527 14.627527 0 0 0 16.017141-11.702021l11.702021-80.890222a298.767231 298.767231 0 0 0 52.878509-31.010357l79.42747 31.010357a16.236555 16.236555 0 0 0 5.85101 1.243339 13.237912 13.237912 0 0 0 11.702021-8.483965l62.971503-104.659953a16.017142 16.017142 0 0 0-2.852368-20.405399l-68.822513-50.245554a220.217413 220.217413 0 0 0 1.462753-31.010357v-4.388258-4.095707-7.313763a131.647739 131.647739 0 0 1-0.731377-14.627527l65.82387-50.318692c6.728662-4.534533 7.679451-11.409471 2.998643-20.332262l-63.117777-104.659952a14.627527 14.627527 0 0 0-12.287122-9.142205 16.017142 16.017142 0 0 0-7.313764 1.828441l-77.672166 30.937219a249.765017 249.765017 0 0 0-52.878509-30.937219l-10.166131-80.96336a14.627527 14.627527 0 0 0-16.017141-11.994571H538.000429a14.627527 14.627527 0 0 0-16.017142 11.994571l-11.702021 80.96336a291.307192 291.307192 0 0 0-52.878509 30.937219l-79.134919-30.937219a18.284408 18.284408 0 0 0-5.997286-1.24334 13.164774 13.164774 0 0 0-11.848296 8.483966l-62.971502 104.659953a15.797729 15.797729 0 0 0 2.852367 20.332262l67.432898 50.318691v2.48668c0 2.852368 0 6.874938-0.731376 12.067709V582.248697a133.037354 133.037354 0 0 1 0.731376 14.627526l-65.82387 50.318692a13.823013 13.823013 0 0 0-2.852368 20.405399l62.971502 104.659953c2.706092 6.070424 6.436112 9.142204 10.970645 9.142204a14.627527 14.627527 0 0 0 6.582387-1.828441l79.42747-31.010356z m141.155632-75.039211a108.609385 108.609385 0 0 1-77.964717-31.010357 104.294265 104.294265 0 0 1-31.010357-76.575101 103.562888 103.562888 0 0 1 31.741733-76.575102 106.342118 106.342118 0 0 1 77.306478-30.644668 109.70645 109.70645 0 0 1 77.745304 30.644668A103.1972 103.1972 0 0 1 709.43504 566.08528a102.392686 102.392686 0 0 1-31.961145 76.575101 108.682523 108.682523 0 0 1-77.745304 31.22977z" p-id="6011"></path></svg>